<svg width="50" height="50" viewBox="0 0 50 50" fill="none" xmlns="http://www.w3.org/2000/svg">
<path opacity="0.4" d="M24.9999 45.8333C13.494 45.8333 4.16659 36.5059 4.16659 25C4.16659 13.4941 13.494 4.16666 24.9999 4.16666C36.5059 4.16666 45.8333 13.4941 45.8333 25C45.8333 36.5059 36.5059 45.8333 24.9999 45.8333Z" fill="#0373FF"/>
<path d="M27.6251 33.9167C28.0209 33.9167 28.4167 33.7708 28.7292 33.4583C29.3334 32.8542 29.3334 31.8542 28.7292 31.25L22.4792 25L28.7292 18.75C29.3334 18.1458 29.3334 17.1458 28.7292 16.5417C28.1251 15.9375 27.1251 15.9375 26.5209 16.5417L19.1667 23.8958C18.5626 24.5 18.5626 25.5 19.1667 26.1042L26.5209 33.4583C26.8334 33.7708 27.2292 33.9167 27.6251 33.9167Z" fill="#0373FF"/>
</svg>
