<svg width="38" height="38" viewBox="0 0 38 38" fill="none" xmlns="http://www.w3.org/2000/svg">
<path opacity="0.4" d="M18.9998 34.8333C27.7443 34.8333 34.8332 27.7445 34.8332 19C34.8332 10.2555 27.7443 3.16666 18.9998 3.16666C10.2553 3.16666 3.1665 10.2555 3.1665 19C3.1665 27.7445 10.2553 34.8333 18.9998 34.8333Z" fill="#FC0000" fill-opacity="0.8"/>
<path d="M20.6782 19L24.3198 15.3583C24.779 14.8992 24.779 14.1392 24.3198 13.68C23.8607 13.2208 23.1007 13.2208 22.6415 13.68L18.9998 17.3217L15.3582 13.68C14.899 13.2208 14.139 13.2208 13.6798 13.68C13.2207 14.1392 13.2207 14.8992 13.6798 15.3583L17.3215 19L13.6798 22.6417C13.2207 23.1008 13.2207 23.8608 13.6798 24.32C13.9173 24.5575 14.2182 24.6683 14.519 24.6683C14.8198 24.6683 15.1207 24.5575 15.3582 24.32L18.9998 20.6783L22.6415 24.32C22.879 24.5575 23.1798 24.6683 23.4807 24.6683C23.7815 24.6683 24.0823 24.5575 24.3198 24.32C24.779 23.8608 24.779 23.1008 24.3198 22.6417L20.6782 19Z" fill="#FC0000" fill-opacity="0.8"/>
</svg>
