<svg width="58" height="58" viewBox="0 0 58 58" fill="none" xmlns="http://www.w3.org/2000/svg">
<rect width="58" height="58" rx="29" fill="#FFF0D5"/>
<path opacity="0.4" d="M43.8357 28.0342V37.5183C43.8357 41.8883 40.2891 45.435 35.9191 45.435H22.0807C17.7107 45.435 14.1641 41.8883 14.1641 37.5183V28.145C15.3674 29.4433 17.0774 30.1875 18.9299 30.1875C20.9249 30.1875 22.8407 29.19 24.0441 27.5908C25.1207 29.19 26.9574 30.1875 28.9999 30.1875C31.0266 30.1875 32.8316 29.2375 33.9241 27.6542C35.1432 29.2217 37.0274 30.1875 38.9907 30.1875C40.9066 30.1875 42.6482 29.4117 43.8357 28.0342Z" fill="#EBAD42"/>
<path d="M33.7341 11.9792H24.2341L23.0625 23.6325C22.9675 24.7092 23.1258 25.7225 23.5216 26.6408C24.44 28.7942 26.5933 30.1875 29 30.1875C31.4383 30.1875 33.5441 28.8258 34.4941 26.6567C34.7791 25.9758 34.9533 25.1842 34.9691 24.3767V24.0758L33.7341 11.9792Z" fill="#EBAD42"/>
<path opacity="0.6" d="M45.4034 23.0942L44.9442 18.7083C44.2792 13.9267 42.11 11.9792 37.4709 11.9792H31.3909L32.5625 23.8542C32.5784 24.0125 32.5942 24.1867 32.5942 24.4875C32.6892 25.3108 32.9425 26.0708 33.3225 26.7517C34.4625 28.8417 36.6792 30.1875 38.9909 30.1875C41.0967 30.1875 42.9967 29.2533 44.1842 27.6067C45.1342 26.34 45.5617 24.7408 45.4034 23.0942Z" fill="#EBAD42"/>
<path opacity="0.6" d="M20.4341 11.9792C15.7791 11.9792 13.6258 13.9267 12.9449 18.7558L12.5174 23.11C12.3591 24.8042 12.8183 26.4508 13.8158 27.7333C15.0191 29.3008 16.8716 30.1875 18.9299 30.1875C21.2416 30.1875 23.4583 28.8417 24.5824 26.7833C24.9941 26.0708 25.2633 25.2475 25.3424 24.3925L26.5774 11.995H20.4341V11.9792Z" fill="#EBAD42"/>
<path d="M27.9708 36.3783C25.9599 36.5842 24.4399 38.2942 24.4399 40.3208V45.435H33.5441V40.875C33.5599 37.5658 31.6124 35.9983 27.9708 36.3783Z" fill="#EBAD42"/>
</svg>
