<svg width="58" height="58" viewBox="0 0 58 58" fill="none" xmlns="http://www.w3.org/2000/svg">
<rect width="58" height="58" rx="29" fill="#E6F1FF"/>
<path opacity="0.4" d="M36.961 10H21.039C14.123 10 10 14.123 10 21.039V36.961C10 43.877 14.123 48 21.039 48H36.961C43.877 48 48 43.877 48 36.961V21.039C48 14.123 43.877 10 36.961 10Z" fill="#0373FF"/>
<path d="M40.9891 23.053C40.9891 23.832 40.3621 24.478 39.5641 24.478H29.5891C28.8101 24.478 28.1641 23.832 28.1641 23.053C28.1641 22.274 28.8101 21.628 29.5891 21.628H39.5641C40.3621 21.628 40.9891 22.274 40.9891 23.053Z" fill="#0373FF"/>
<path d="M25.143 21.21L20.868 25.485C20.583 25.77 20.222 25.903 19.861 25.903C19.5 25.903 19.12 25.77 18.854 25.485L17.429 24.06C16.859 23.509 16.859 22.597 17.429 22.046C17.98 21.495 18.873 21.495 19.443 22.046L19.861 22.464L23.129 19.196C23.68 18.645 24.573 18.645 25.143 19.196C25.694 19.747 25.694 20.659 25.143 21.21Z" fill="#0373FF"/>
<path d="M40.9891 36.353C40.9891 37.132 40.3621 37.778 39.5641 37.778H29.5891C28.8101 37.778 28.1641 37.132 28.1641 36.353C28.1641 35.574 28.8101 34.928 29.5891 34.928H39.5641C40.3621 34.928 40.9891 35.574 40.9891 36.353Z" fill="#0373FF"/>
<path d="M25.143 34.51L20.868 38.785C20.583 39.07 20.222 39.203 19.861 39.203C19.5 39.203 19.12 39.07 18.854 38.785L17.429 37.36C16.859 36.809 16.859 35.897 17.429 35.346C17.98 34.795 18.873 34.795 19.443 35.346L19.861 35.764L23.129 32.496C23.68 31.945 24.573 31.945 25.143 32.496C25.694 33.047 25.694 33.959 25.143 34.51Z" fill="#0373FF"/>
</svg>
