<svg width="58" height="58" viewBox="0 0 58 58" fill="none" xmlns="http://www.w3.org/2000/svg">
<rect width="58" height="58" rx="29" fill="#E9E0FF"/>
<path opacity="0.4" d="M41.8251 20.9883C41.8251 21.8433 41.3659 22.6191 40.6376 23.0149L37.8825 24.5033L35.5392 25.7542L30.6784 28.3825C30.1559 28.6674 29.5859 28.81 29.0001 28.81C28.4142 28.81 27.8442 28.6674 27.3217 28.3825L17.3625 23.0149C16.6342 22.6191 16.175 21.8433 16.175 20.9883C16.175 20.1333 16.6342 19.3574 17.3625 18.9616L20.4817 17.2833L22.9676 15.9375L27.3217 13.5942C28.3667 13.0242 29.6334 13.0242 30.6784 13.5942L40.6376 18.9616C41.3659 19.3574 41.8251 20.1333 41.8251 20.9883Z" fill="#7043E1"/>
<path opacity="0.4" d="M25.675 30.2508L16.4125 25.6117C15.7 25.2475 14.8766 25.295 14.1958 25.7067C13.515 26.1184 13.1191 26.8467 13.1191 27.6384V36.3942C13.1191 37.9142 13.9583 39.2759 15.3199 39.9567L24.5825 44.5801C24.8991 44.7384 25.2475 44.8175 25.5958 44.8175C26.0075 44.8175 26.4191 44.7067 26.7833 44.4692C27.4641 44.0576 27.86 43.3292 27.86 42.5375V33.7817C27.8758 32.2934 27.0366 30.9317 25.675 30.2508Z" fill="#7043E1"/>
<path opacity="0.4" d="M44.8808 27.6542V36.41C44.8808 37.9142 44.0417 39.2758 42.68 39.9567L33.4175 44.5958C33.1008 44.7542 32.7525 44.8334 32.4041 44.8334C31.9925 44.8334 31.5808 44.7226 31.2008 44.4851C30.5358 44.0734 30.1241 43.345 30.1241 42.5534V33.8133C30.1241 32.2933 30.9633 30.9317 32.325 30.2508L35.7292 28.5566L38.1042 27.3691L41.5875 25.6275C42.3 25.2633 43.1233 25.295 43.8042 25.7225C44.4692 26.1342 44.8808 26.8626 44.8808 27.6542Z" fill="#7043E1"/>
<path d="M37.8825 24.5033L35.5392 25.7542L20.4817 17.2833L22.9675 15.9375L37.5025 24.1392C37.6609 24.2342 37.7875 24.3608 37.8825 24.5033Z" fill="#7043E1"/>
<path d="M38.1041 27.3691V30.9633C38.1041 31.6125 37.5658 32.1508 36.9166 32.1508C36.2675 32.1508 35.7291 31.6125 35.7291 30.9633V28.5566L38.1041 27.3691Z" fill="#7043E1"/>
</svg>
