<svg width="38" height="38" viewBox="0 0 38 38" fill="none" xmlns="http://www.w3.org/2000/svg">
<path opacity="0.4" d="M31.8251 10.9883C31.8251 11.8433 31.3659 12.6191 30.6376 13.0149L27.8825 14.5033L25.5392 15.7542L20.6784 18.3824C20.1559 18.6674 19.5859 18.81 19.0001 18.81C18.4142 18.81 17.8442 18.6674 17.3217 18.3824L7.36255 13.0149C6.63422 12.6191 6.17505 11.8433 6.17505 10.9883C6.17505 10.1333 6.63422 9.35742 7.36255 8.96159L10.4817 7.28326L12.9676 5.93747L17.3217 3.59416C18.3667 3.02416 19.6334 3.02416 20.6784 3.59416L30.6376 8.96159C31.3659 9.35742 31.8251 10.1333 31.8251 10.9883Z" fill="#7043E1"/>
<path opacity="0.4" d="M15.675 20.2508L6.41245 15.6117C5.69995 15.2475 4.87663 15.295 4.1958 15.7067C3.51496 16.1183 3.11914 16.8467 3.11914 17.6384V26.3942C3.11914 27.9142 3.95828 29.2758 5.31995 29.9567L14.5825 34.5801C14.8991 34.7384 15.2475 34.8175 15.5958 34.8175C16.0075 34.8175 16.4191 34.7067 16.7833 34.4692C17.4641 34.0576 17.86 33.3292 17.86 32.5375V23.7817C17.8758 22.2934 17.0366 20.9317 15.675 20.2508Z" fill="#7043E1"/>
<path opacity="0.4" d="M34.8809 17.6542V26.41C34.8809 27.9142 34.0418 29.2758 32.6801 29.9567L23.4176 34.5958C23.101 34.7541 22.7526 34.8333 22.4043 34.8333C21.9926 34.8333 21.581 34.7226 21.201 34.4851C20.536 34.0734 20.1243 33.345 20.1243 32.5533V23.8133C20.1243 22.2933 20.9635 20.9316 22.3251 20.2508L25.7293 18.5566L28.1043 17.3691L31.5876 15.6275C32.3001 15.2633 33.1235 15.295 33.8043 15.7225C34.4693 16.1342 34.8809 16.8626 34.8809 17.6542Z" fill="#7043E1"/>
<path d="M27.8825 14.5033L25.5392 15.7542L10.4817 7.28329L12.9675 5.9375L27.5025 14.1392C27.6609 14.2342 27.7875 14.3608 27.8825 14.5033Z" fill="#7043E1"/>
<path d="M28.1042 17.3691V20.9633C28.1042 21.6125 27.5659 22.1508 26.9167 22.1508C26.2676 22.1508 25.7292 21.6125 25.7292 20.9633V18.5566L28.1042 17.3691Z" fill="#7043E1"/>
</svg>
