<svg width="31" height="32" viewBox="0 0 31 32" fill="none" xmlns="http://www.w3.org/2000/svg">
<path opacity="0.4" d="M16.7791 26.3592C10.3516 26.3592 5.14116 21.1487 5.14116 14.7213C5.14116 8.29385 10.3516 3.08337 16.7791 3.08337C23.2065 3.08337 28.417 8.29385 28.417 14.7213C28.417 21.1487 23.2065 26.3592 16.7791 26.3592Z" fill="#9747FF"/>
<path d="M2.59586 24.9771C3.02211 24.1892 3.92628 23.75 5.14044 23.75C6.05753 23.75 6.84544 24.1246 7.31044 24.7704C7.77544 25.4162 7.87877 26.2817 7.59461 27.1471C7.03919 28.8263 6.07044 29.2008 5.54086 29.2654C5.46336 29.2783 5.38586 29.2783 5.29544 29.2783C4.72711 29.2783 3.84877 29.0329 2.99627 27.7542C2.31169 26.7596 2.18253 25.765 2.59586 24.9771Z" fill="#9747FF"/>
</svg>
