<svg width="38" height="39" viewBox="0 0 38 39" fill="none" xmlns="http://www.w3.org/2000/svg">
<path d="M25.5549 5.40097L11.2574 10.151C1.64661 13.3651 1.64661 18.606 11.2574 21.8043L15.5008 23.2135L16.9099 27.4568C20.1083 37.0676 25.3649 37.0676 28.5633 27.4568L33.3291 13.1751C35.4508 6.76263 31.9674 3.26347 25.5549 5.40097ZM26.0616 13.9193L20.0449 19.9676C19.8074 20.2051 19.5066 20.316 19.2058 20.316C18.9049 20.316 18.6041 20.2051 18.3666 19.9676C17.9074 19.5085 17.9074 18.7485 18.3666 18.2893L24.3833 12.241C24.8424 11.7818 25.6024 11.7818 26.0616 12.241C26.5208 12.7001 26.5208 13.4601 26.0616 13.9193Z" fill="#7043E1" fill-opacity="0.92"/>
</svg>
