<svg width="21" height="21" viewBox="0 0 21 21" fill="none" xmlns="http://www.w3.org/2000/svg">
<path d="M8.12704 5.00669C9.18288 3.11335 9.71038 2.16669 10.4995 2.16669C11.2887 2.16669 11.8162 3.11335 12.872 5.00669L13.1454 5.49669C13.4454 6.03502 13.5954 6.30419 13.8287 6.48169C14.062 6.65919 14.3537 6.72502 14.937 6.85669L15.467 6.97669C17.517 7.44085 18.5412 7.67252 18.7854 8.45669C19.0287 9.24002 18.3304 10.0575 16.9329 11.6917L16.5712 12.1142C16.1745 12.5784 15.9754 12.8109 15.8862 13.0975C15.797 13.385 15.827 13.695 15.887 14.3142L15.942 14.8784C16.1529 17.0592 16.2587 18.1492 15.6204 18.6334C14.982 19.1175 14.022 18.6759 12.1037 17.7925L11.6062 17.5642C11.0612 17.3125 10.7887 17.1875 10.4995 17.1875C10.2104 17.1875 9.93788 17.3125 9.39288 17.5642L8.89621 17.7925C6.97704 18.6759 6.01704 19.1175 5.37954 18.6342C4.74038 18.1492 4.84621 17.0592 5.05704 14.8784L5.11204 14.315C5.17204 13.695 5.20204 13.385 5.11204 13.0984C5.02371 12.8109 4.82454 12.5784 4.42788 12.115L4.06621 11.6917C2.66871 10.0584 1.97038 9.24085 2.21371 8.45669C2.45704 7.67252 3.48288 7.44002 5.53288 6.97669L6.06288 6.85669C6.64538 6.72502 6.93621 6.65919 7.17038 6.48169C7.40454 6.30419 7.55371 6.03502 7.85371 5.49669L8.12704 5.00669Z" fill="#FBEF00"/>
</svg>
