<svg width="58" height="58" viewBox="0 0 58 58" fill="none" xmlns="http://www.w3.org/2000/svg">
<rect width="58" height="58" rx="29" fill="#EAFFF2"/>
<path d="M33.75 14.75V29C33.75 30.7417 32.325 32.1667 30.5833 32.1667H13.1666V19.5C13.1666 16.0008 16.0008 13.1667 19.5 13.1667H32.1666C33.0375 13.1667 33.75 13.8792 33.75 14.75Z" fill="#4ACB7D"/>
<path opacity="0.4" d="M44.8333 32.1667V36.9167C44.8333 39.545 42.7116 41.6667 40.0833 41.6667H38.5C38.5 39.925 37.075 38.5 35.3333 38.5C33.5916 38.5 32.1666 39.925 32.1666 41.6667H25.8333C25.8333 39.925 24.4083 38.5 22.6666 38.5C20.925 38.5 19.5 39.925 19.5 41.6667H17.9166C15.2883 41.6667 13.1666 39.545 13.1666 36.9167V32.1667H30.5833C32.325 32.1667 33.75 30.7417 33.75 29V17.9167H36.6633C37.8033 17.9167 38.8483 18.5342 39.4183 19.5159L42.1258 24.25H40.0833C39.2125 24.25 38.5 24.9625 38.5 25.8333V30.5833C38.5 31.4542 39.2125 32.1667 40.0833 32.1667H44.8333Z" fill="#4ACB7D"/>
<path d="M22.6667 44.8333C24.4156 44.8333 25.8333 43.4156 25.8333 41.6667C25.8333 39.9178 24.4156 38.5 22.6667 38.5C20.9178 38.5 19.5 39.9178 19.5 41.6667C19.5 43.4156 20.9178 44.8333 22.6667 44.8333Z" fill="#4ACB7D"/>
<path d="M35.3333 44.8333C37.0822 44.8333 38.5 43.4156 38.5 41.6667C38.5 39.9178 37.0822 38.5 35.3333 38.5C33.5844 38.5 32.1666 39.9178 32.1666 41.6667C32.1666 43.4156 33.5844 44.8333 35.3333 44.8333Z" fill="#4ACB7D"/>
<path d="M44.8333 29.8392V32.1667H40.0833C39.2125 32.1667 38.5 31.4542 38.5 30.5833V25.8333C38.5 24.9625 39.2125 24.25 40.0833 24.25H42.1258L44.4216 28.2716C44.6908 28.7466 44.8333 29.285 44.8333 29.8392Z" fill="#4ACB7D"/>
</svg>
