<svg width="38" height="38" viewBox="0 0 38 38" fill="none" xmlns="http://www.w3.org/2000/svg">
<path d="M23.7501 4.75V19C23.7501 20.7417 22.3251 22.1667 20.5834 22.1667H3.16675V9.5C3.16675 6.00083 6.00091 3.16666 9.50008 3.16666H22.1667C23.0376 3.16666 23.7501 3.87916 23.7501 4.75Z" fill="#4ACB7D"/>
<path opacity="0.4" d="M34.8334 22.1667V26.9167C34.8334 29.545 32.7118 31.6667 30.0834 31.6667H28.5001C28.5001 29.925 27.0751 28.5 25.3334 28.5C23.5918 28.5 22.1668 29.925 22.1668 31.6667H15.8334C15.8334 29.925 14.4084 28.5 12.6667 28.5C10.9251 28.5 9.50008 29.925 9.50008 31.6667H7.91675C5.28842 31.6667 3.16675 29.545 3.16675 26.9167V22.1667H20.5834C22.3251 22.1667 23.7501 20.7417 23.7501 19V7.91667H26.6634C27.8034 7.91667 28.8484 8.53419 29.4184 9.51585L32.1259 14.25H30.0834C29.2126 14.25 28.5001 14.9625 28.5001 15.8333V20.5833C28.5001 21.4542 29.2126 22.1667 30.0834 22.1667H34.8334Z" fill="#4ACB7D"/>
<path d="M12.6667 34.8333C14.4156 34.8333 15.8333 33.4156 15.8333 31.6667C15.8333 29.9178 14.4156 28.5 12.6667 28.5C10.9178 28.5 9.5 29.9178 9.5 31.6667C9.5 33.4156 10.9178 34.8333 12.6667 34.8333Z" fill="#4ACB7D"/>
<path d="M25.3334 34.8333C27.0823 34.8333 28.5001 33.4156 28.5001 31.6667C28.5001 29.9178 27.0823 28.5 25.3334 28.5C23.5845 28.5 22.1667 29.9178 22.1667 31.6667C22.1667 33.4156 23.5845 34.8333 25.3334 34.8333Z" fill="#4ACB7D"/>
<path d="M34.8333 19.8392V22.1667H30.0833C29.2125 22.1667 28.5 21.4542 28.5 20.5833V15.8333C28.5 14.9625 29.2125 14.25 30.0833 14.25H32.1258L34.4216 18.2716C34.6908 18.7466 34.8333 19.285 34.8333 19.8392Z" fill="#4ACB7D"/>
</svg>
