<svg width="17" height="16" viewBox="0 0 17 16" fill="none" xmlns="http://www.w3.org/2000/svg">
<path d="M7.06465 5.33209H13.2748" stroke="white" stroke-width="0.966102" stroke-linecap="square"/>
<path fill-rule="evenodd" clip-rule="evenodd" d="M7.07448 5.29343C7.07448 4.36463 6.31594 3.61151 5.38045 3.61151C4.44498 3.61151 3.68643 4.36463 3.68643 5.29343C3.68643 6.22222 4.44498 6.97535 5.38045 6.97535C6.31594 6.97535 7.07448 6.22222 7.07448 5.29343Z" stroke="white" stroke-width="0.966102" stroke-linecap="square"/>
<path d="M10.6133 11.5233H4.40318" stroke="white" stroke-width="0.966102" stroke-linecap="square"/>
<path fill-rule="evenodd" clip-rule="evenodd" d="M10.6035 11.4844C10.6035 10.5556 11.3621 9.80252 12.2975 9.80252C13.233 9.80252 13.9915 10.5556 13.9915 11.4844C13.9915 12.4133 13.233 13.1664 12.2975 13.1664C11.3621 13.1664 10.6035 12.4133 10.6035 11.4844Z" stroke="white" stroke-width="0.966102" stroke-linecap="square"/>
</svg>
