<svg width="24" height="24" viewBox="0 0 24 24" fill="none" xmlns="http://www.w3.org/2000/svg">
<path d="M16.5 6.75H19.572C19.7578 6.75018 19.9369 6.81933 20.0746 6.94403C20.2124 7.06874 20.2989 7.24013 20.3175 7.425L20.775 12H19.266L18.891 8.25H16.5V10.5C16.5 10.6989 16.421 10.8897 16.2803 11.0303C16.1397 11.171 15.9489 11.25 15.75 11.25C15.5511 11.25 15.3603 11.171 15.2197 11.0303C15.079 10.8897 15 10.6989 15 10.5V8.25H9V10.5C9 10.6989 8.92098 10.8897 8.78032 11.0303C8.63967 11.171 8.44891 11.25 8.25 11.25C8.05108 11.25 7.86032 11.171 7.71967 11.0303C7.57901 10.8897 7.5 10.6989 7.5 10.5V8.25H5.10749L3.9075 20.25H12V21.75H3.078C2.97324 21.7499 2.86967 21.7278 2.77396 21.6853C2.67824 21.6427 2.59251 21.5806 2.52227 21.5028C2.45204 21.4251 2.39887 21.3335 2.36618 21.234C2.33349 21.1345 2.32202 21.0292 2.33249 20.925L3.68249 7.425C3.70107 7.24013 3.78761 7.06874 3.92535 6.94403C4.06308 6.81933 4.24219 6.75018 4.42799 6.75H7.5V6.2265C7.5 3.6255 9.50399 1.5 12 1.5C14.496 1.5 16.5 3.6255 16.5 6.2265V6.7515V6.75ZM15 6.75V6.2265C15 4.4355 13.647 3 12 3C10.353 3 9 4.4355 9 6.2265V6.7515H15V6.75ZM19.7205 18.09L18 16.371V21.75C18 21.9489 17.921 22.1397 17.7803 22.2803C17.6397 22.421 17.4489 22.5 17.25 22.5C17.0511 22.5 16.8603 22.421 16.7197 22.2803C16.579 22.1397 16.5 21.9489 16.5 21.75V16.371L14.781 18.09C14.7118 18.1616 14.6291 18.2188 14.5375 18.2581C14.446 18.2974 14.3476 18.3181 14.248 18.3189C14.1485 18.3198 14.0497 18.3008 13.9575 18.2631C13.8654 18.2254 13.7816 18.1697 13.7112 18.0993C13.6408 18.0289 13.5851 17.9451 13.5474 17.853C13.5097 17.7608 13.4907 17.662 13.4916 17.5625C13.4924 17.4629 13.5131 17.3644 13.5524 17.2729C13.5917 17.1814 13.6489 17.0987 13.7205 17.0295L16.7205 14.0295C16.8611 13.8889 17.0519 13.8099 17.2507 13.8099C17.4496 13.8099 17.6403 13.8889 17.781 14.0295L20.781 17.0295C20.8526 17.0987 20.9098 17.1814 20.9491 17.2729C20.9884 17.3644 21.0091 17.4629 21.0099 17.5625C21.0108 17.662 20.9918 17.7608 20.9541 17.853C20.9164 17.9451 20.8607 18.0289 20.7903 18.0993C20.7199 18.1697 20.6361 18.2254 20.544 18.2631C20.4518 18.3008 20.353 18.3198 20.2534 18.3189C20.1539 18.3181 20.0554 18.2974 19.9639 18.2581C19.8724 18.2188 19.7897 18.1616 19.7205 18.09Z" fill="#7743F8"/>
</svg>
