<svg width="24" height="24" viewBox="0 0 24 24" fill="none" xmlns="http://www.w3.org/2000/svg">
<path fill-rule="evenodd" clip-rule="evenodd" d="M11 2.00002C12.933 2.00002 14.5 3.567 14.5 5.49998C14.5 7.36856 13.0358 8.89514 11.1921 8.9948L11 9C9.06705 9 7.50002 7.43302 7.50002 5.49998C7.50002 3.63145 8.9643 2.10483 10.808 2.00517L11 2.00002ZM4 20H12.8027C12.4449 19.3818 12.2012 18.7044 12.083 18H6.00002V16.4L6.00522 16.2059C6.10164 14.4075 7.52936 13 9.25 13H12.75L12.9332 13.0053C13.1117 13.0158 13.2866 13.0414 13.4567 13.0809C13.9623 12.495 14.5761 12.0121 15.2645 11.6585C14.5178 11.2387 13.661 11 12.75 11H9.25L9.03362 11.0045C6.23448 11.1212 4 13.4922 4 16.4V20ZM9.50003 5.49998C9.50003 4.67156 10.1716 3.99998 11 3.99998C11.8285 3.99998 12.5 4.67156 12.5 5.49998C12.5 6.32841 11.8285 6.99998 11 6.99998C10.1716 6.99998 9.50003 6.32841 9.50003 5.49998ZM15.0611 21.0451L18 19.25L20.9389 21.0451L20.1399 17.6953L22.7553 15.4549L19.3225 15.1797L18 12L16.6775 15.1797L13.2447 15.4549L15.8601 17.6953L15.0611 21.0451Z" fill="#FF75FA"/>
</svg>
