<svg width="25" height="25" viewBox="0 0 25 25" fill="none" xmlns="http://www.w3.org/2000/svg">
<path d="M7.93727 2.12656H6.03727C3.84727 2.12656 2.69727 3.27656 2.69727 5.45656V7.35656C2.69727 9.53656 3.84727 10.6866 6.02727 10.6866H7.92727C10.1073 10.6866 11.2573 9.53656 11.2573 7.35656V5.45656C11.2673 3.27656 10.1173 2.12656 7.93727 2.12656Z" fill="#6C47FF"/>
<path opacity="0.4" d="M19.3672 2.12656H17.4672C15.2872 2.12656 14.1372 3.27656 14.1372 5.45656V7.35656C14.1372 9.53656 15.2872 10.6866 17.4672 10.6866H19.3672C21.5472 10.6866 22.6972 9.53656 22.6972 7.35656V5.45656C22.6972 3.27656 21.5472 2.12656 19.3672 2.12656Z" fill="#6C47FF"/>
<path d="M19.3672 13.5565H17.4672C15.2872 13.5565 14.1372 14.7065 14.1372 16.8865V18.7865C14.1372 20.9665 15.2872 22.1165 17.4672 22.1165H19.3672C21.5472 22.1165 22.6972 20.9665 22.6972 18.7865V16.8865C22.6972 14.7065 21.5472 13.5565 19.3672 13.5565Z" fill="#6C47FF"/>
<path opacity="0.4" d="M7.93727 13.5565H6.03727C3.84727 13.5565 2.69727 14.7065 2.69727 16.8865V18.7865C2.69727 20.9765 3.84727 22.1265 6.02727 22.1265H7.92727C10.1073 22.1265 11.2573 20.9765 11.2573 18.7965V16.8965C11.2673 14.7065 10.1173 13.5565 7.93727 13.5565Z" fill="#6C47FF"/>
</svg>
