<svg width="25" height="25" viewBox="0 0 25 25" fill="none" xmlns="http://www.w3.org/2000/svg">
<path d="M6.96909 23.3944H17.6362C19.7157 23.3944 20.7502 22.35 20.7502 20.2504V5.01256C20.7502 2.92328 19.7157 1.8587 17.6362 1.8587H6.96909C4.89994 1.8587 3.85509 2.92327 3.85509 5.01299V20.2504C3.85509 22.3496 4.89994 23.3944 6.96909 23.3944ZM7.04923 21.7774C6.01466 21.7774 5.47209 21.2246 5.47209 20.2204V5.04299C5.47209 4.0487 6.01466 3.4757 7.05952 3.4757H17.5561C18.6005 3.4757 19.1332 4.03842 19.1332 5.04299V20.2204C19.1332 21.2246 18.6005 21.7774 17.5659 21.7774H7.04923ZM8.50595 7.67442H16.1195C16.4709 7.67442 16.7422 7.39328 16.7422 7.04185C16.7422 6.70027 16.4714 6.43927 16.1195 6.43927H8.50595C8.13394 6.43927 7.87294 6.70027 7.87294 7.04185C7.87294 7.39328 8.13437 7.67442 8.50595 7.67442ZM8.50595 11.1801H16.1195C16.4709 11.1801 16.7422 10.899 16.7422 10.5471C16.7422 10.206 16.4714 9.94456 16.1195 9.94456H8.50595C8.13394 9.94456 7.87294 10.206 7.87294 10.5471C7.87294 10.8986 8.13437 11.1801 8.50595 11.1801ZM8.50595 14.6858H12.1119C12.4634 14.6858 12.7347 14.4146 12.7347 14.073C12.7347 13.7216 12.4634 13.4503 12.1119 13.4503H8.50552C8.13352 13.4503 7.87252 13.7216 7.87252 14.073C7.87252 14.4146 8.13394 14.6858 8.50552 14.6858" fill="url(#paint0_linear_261_13398)" fill-opacity="0.92"/>
<defs>
<linearGradient id="paint0_linear_261_13398" x1="3.85509" y1="3.04409" x2="26.527" y2="5.8919" gradientUnits="userSpaceOnUse">
<stop stop-color="#8D62F9"/>
<stop offset="1" stop-color="#4419B1" stop-opacity="0.96"/>
</linearGradient>
</defs>
</svg>
