<svg width="24" height="24" viewBox="0 0 24 24" fill="none" xmlns="http://www.w3.org/2000/svg">
<path d="M12 2V4M7.50005 3.5L9.00005 5M16.5 3.5L15 5M14.265 18.372C14.581 17.407 14.739 16.925 15.062 16.593C15.216 16.4343 15.3917 16.3057 15.589 16.207C16 16 16.5 16 17.5 16C18.5 16 19 16 19.412 16.207C19.608 16.3057 19.7837 16.4343 19.939 16.593C20.262 16.925 20.419 17.407 20.736 18.372L21.062 19.367C21.456 20.569 21.653 21.169 21.359 21.585C21.064 22 20.442 22 19.197 22H15.804C14.559 22 13.936 22 13.642 21.585C13.347 21.169 13.544 20.569 13.938 19.367L14.265 18.372ZM8.76405 10.372C9.08005 9.407 9.23905 8.925 9.56105 8.593C9.71638 8.43433 9.89205 8.30567 10.088 8.207C10.5 8 11 8 12 8C13 8 13.5 8 13.912 8.207C14.108 8.30567 14.2837 8.43433 14.439 8.593C14.761 8.925 14.919 9.407 15.236 10.372L15.562 11.367C15.956 12.569 16.152 13.169 15.859 13.585C15.564 14 14.942 14 13.696 14H10.304C9.05805 14 8.43605 14 8.14205 13.585C7.84705 13.169 8.04405 12.569 8.43805 11.367L8.76405 10.372ZM3.26405 18.372C3.58105 17.407 3.73905 16.925 4.06205 16.593C4.21605 16.4343 4.39172 16.3057 4.58905 16.207C5.00005 16 5.50005 16 6.50005 16C7.50005 16 8.00005 16 8.41205 16.207C8.60805 16.3057 8.78371 16.4343 8.93905 16.593C9.26205 16.925 9.41905 17.407 9.73605 18.372L10.062 19.367C10.456 20.569 10.653 21.169 10.359 21.585C10.064 22 9.44205 22 8.19705 22H4.80405C3.55905 22 2.93605 22 2.64205 21.585C2.34705 21.169 2.54405 20.569 2.93805 19.367L3.26405 18.372Z" stroke="#EBAD42" stroke-width="1.5" stroke-linecap="round" stroke-linejoin="round"/>
</svg>
