<svg width="23" height="23" viewBox="0 0 23 23" fill="none" xmlns="http://www.w3.org/2000/svg">
<path d="M17.4473 10.1266C19.7946 10.1266 21.6973 8.22377 21.6973 5.87656C21.6973 3.52935 19.7946 1.62656 17.4473 1.62656C15.1001 1.62656 13.1973 3.52935 13.1973 5.87656C13.1973 8.22377 15.1001 10.1266 17.4473 10.1266Z" stroke="#989898" stroke-width="1.5" stroke-linecap="round" stroke-linejoin="round"/>
<path d="M5.94734 10.1266C8.29455 10.1266 10.1973 8.22377 10.1973 5.87656C10.1973 3.52935 8.29455 1.62656 5.94734 1.62656C3.60013 1.62656 1.69734 3.52935 1.69734 5.87656C1.69734 8.22377 3.60013 10.1266 5.94734 10.1266Z" stroke="#989898" stroke-width="1.5" stroke-linecap="round" stroke-linejoin="round"/>
<path d="M17.4473 21.6266C19.7946 21.6266 21.6973 19.7238 21.6973 17.3766C21.6973 15.0293 19.7946 13.1266 17.4473 13.1266C15.1001 13.1266 13.1973 15.0293 13.1973 17.3766C13.1973 19.7238 15.1001 21.6266 17.4473 21.6266Z" stroke="#989898" stroke-width="1.5" stroke-linecap="round" stroke-linejoin="round"/>
<path d="M5.94734 21.6266C8.29455 21.6266 10.1973 19.7238 10.1973 17.3766C10.1973 15.0293 8.29455 13.1266 5.94734 13.1266C3.60013 13.1266 1.69734 15.0293 1.69734 17.3766C1.69734 19.7238 3.60013 21.6266 5.94734 21.6266Z" stroke="#989898" stroke-width="1.5" stroke-linecap="round" stroke-linejoin="round"/>
</svg>
