<svg width="19" height="19" viewBox="0 0 19 19" fill="none" xmlns="http://www.w3.org/2000/svg">
<path fill-rule="evenodd" clip-rule="evenodd" d="M9.29988 4.82064C9.71748 4.40015 10.1822 4.11676 10.6795 3.96223C11.3828 3.74364 12.0938 3.80061 12.7409 4.00938C14.6594 4.62742 15.5988 6.3717 15.6057 8.13962L14.9905 8.14202L15.6057 8.13899C15.6144 9.91042 14.7206 11.4272 13.5503 12.6178C12.3787 13.8097 10.882 14.7269 9.54996 15.3172L9.51205 15.334L9.304 15.4299L9.29988 15.4281L9.29577 15.4299L9.0877 15.334L9.0498 15.3172C7.71787 14.7269 6.22121 13.8098 5.04965 12.618C3.87944 11.4275 2.98554 9.91086 2.99406 8.1396L3.60926 8.14256L2.99406 8.14022C3.00077 6.37219 3.94005 4.62767 5.85858 4.00948M9.29988 4.82064C8.88229 4.40015 8.41751 4.11676 7.9203 3.96223C7.21695 3.74364 6.50598 3.80061 5.85888 4.00938M7.55514 5.13721C7.14376 5.00936 6.69732 5.03171 6.23646 5.18043L6.23616 5.18053C4.92721 5.6022 4.2296 6.79245 4.22447 8.1449L4.22446 8.14552C4.21806 9.47716 4.8888 10.6992 5.9271 11.7554C6.894 12.739 8.13806 13.5337 9.29779 14.078L9.29988 14.0771L9.30197 14.078C10.4618 13.5336 11.7059 12.7389 12.6728 11.7552C13.7112 10.6989 14.3819 9.47682 14.3753 8.14506L14.3753 8.14443C14.37 6.79218 13.6724 5.60216 12.3636 5.18053L12.3633 5.18043C11.9024 5.03171 11.456 5.00936 11.0446 5.13721C10.6379 5.26361 10.2081 5.55445 9.80471 6.1336L9.29988 6.85839L8.79506 6.1336C8.39168 5.55445 7.96185 5.26361 7.55514 5.13721Z" fill="#8D62F9" fill-opacity="0.92"/>
</svg>
