<svg width="21" height="21" viewBox="0 0 21 21" fill="none" xmlns="http://www.w3.org/2000/svg">
<path d="M8.75585 3.02568C9.71592 2.05857 11.2832 2.05857 12.2515 3.0183L12.8505 3.61628C13.0803 3.84595 13.3921 3.97802 13.7203 3.97802H14.5655C15.9277 3.97802 17.0354 5.08457 17.0354 6.44623V7.29194C17.0354 7.61923 17.1667 7.93093 17.3965 8.16061L17.9873 8.75121C18.455 9.21056 18.7094 9.83397 18.7094 10.4902C18.7176 11.1464 18.4632 11.7706 18.0037 12.2374L17.3965 12.8444C17.1667 13.0741 17.0354 13.3858 17.0354 13.7147V14.5588C17.0354 15.9204 15.9277 17.0286 14.5655 17.0286H13.7203C13.3921 17.0286 13.0803 17.159 12.8505 17.3887L12.2597 17.9793C11.7756 18.4641 11.1437 18.7012 10.5119 18.7012C9.88004 18.7012 9.2482 18.4641 8.76406 17.9883L8.16504 17.3887C7.93528 17.159 7.62346 17.0286 7.29523 17.0286H6.45004C5.08789 17.0286 3.98011 15.9204 3.98011 14.5588V13.7147C3.98011 13.3858 3.84882 13.0741 3.61906 12.8362L3.02825 12.2538C2.06818 11.2949 2.05997 9.72734 3.02004 8.76023L3.61906 8.16061C3.84882 7.93093 3.98011 7.61923 3.98011 7.28291V6.44623C3.98011 5.08457 5.08789 3.97802 6.45004 3.97802H7.29523C7.62346 3.97802 7.93528 3.84595 8.16504 3.61628L8.75585 3.02568ZM12.6208 11.8929C12.2187 11.8929 11.8987 12.2136 11.8987 12.6065C11.8987 13.0084 12.2187 13.3284 12.6208 13.3284C13.0146 13.3284 13.3347 13.0084 13.3347 12.6065C13.3347 12.2136 13.0146 11.8929 12.6208 11.8929ZM13.1213 7.88172C12.8423 7.60364 12.391 7.60364 12.112 7.88172L7.89425 12.0979C7.61526 12.3768 7.61526 12.8362 7.89425 13.1151C8.02554 13.2545 8.20607 13.3284 8.3948 13.3284C8.59174 13.3284 8.77226 13.2545 8.90356 13.1151L13.1213 8.89968C13.4003 8.62078 13.4003 8.16061 13.1213 7.88172ZM8.40301 7.67665C8.00913 7.67665 7.6809 7.99655 7.6809 8.39029C7.6809 8.79304 8.00913 9.11213 8.40301 9.11213C8.79688 9.11213 9.11691 8.79304 9.11691 8.39029C9.11691 7.99655 8.79688 7.67665 8.40301 7.67665Z" fill="url(#paint0_linear_1235_1338)"/>
<defs>
<linearGradient id="paint0_linear_1235_1338" x1="10.5068" y1="2.29942" x2="10.5068" y2="18.7012" gradientUnits="userSpaceOnUse">
<stop stop-color="#8D62F9"/>
<stop offset="1" stop-color="#533A93"/>
</linearGradient>
</defs>
</svg>
