<svg width="18" height="18" viewBox="0 0 18 18" fill="none" xmlns="http://www.w3.org/2000/svg">
<path d="M2.24402 8.682C2.24402 7.458 2.55002 6.324 3.15602 5.286C3.76202 4.248 4.58402 3.426 5.62202 2.82C6.66002 2.214 7.78802 1.914 9.00602 1.914C9.91802 1.914 10.794 2.094 11.628 2.448C12.462 2.802 13.176 3.288 13.782 3.888C14.388 4.488 14.868 5.208 15.222 6.048C15.576 6.888 15.756 7.758 15.756 8.682C15.756 9.594 15.576 10.47 15.222 11.304C14.868 12.138 14.382 12.858 13.782 13.458C13.182 14.058 12.462 14.538 11.628 14.892C10.794 15.246 9.92402 15.426 9.00602 15.426C8.08802 15.426 7.20602 15.246 6.37202 14.892C5.53802 14.538 4.81802 14.052 4.21202 13.452C3.60602 12.852 3.13202 12.132 2.77202 11.304C2.41202 10.476 2.24402 9.6 2.24402 8.682ZM3.73202 8.682C3.73202 10.104 4.24802 11.34 5.28602 12.39C6.32402 13.428 7.56002 13.944 9.00602 13.944C9.95402 13.944 10.836 13.71 11.64 13.236C12.444 12.762 13.092 12.126 13.566 11.316C14.04 10.506 14.28 9.63 14.28 8.682C14.28 7.734 14.04 6.852 13.566 6.042C13.092 5.232 12.45 4.59 11.64 4.116C10.83 3.642 9.95402 3.408 9.00602 3.408C8.05802 3.408 7.17602 3.642 6.37202 4.116C5.56802 4.59 4.92002 5.232 4.44002 6.042C3.96002 6.852 3.73202 7.734 3.73202 8.682ZM8.48402 8.682V4.686C8.48402 4.548 8.53202 4.428 8.62802 4.332C8.72402 4.236 8.84402 4.188 8.98202 4.188C9.11402 4.188 9.23402 4.236 9.33602 4.332C9.43802 4.428 9.48602 4.548 9.48602 4.686V6.804L9.93602 6.024C10.008 5.904 10.11 5.832 10.248 5.796C10.386 5.76 10.512 5.778 10.632 5.85C10.752 5.916 10.824 6.012 10.866 6.15C10.908 6.288 10.89 6.408 10.818 6.528L9.44402 8.874C9.36602 9.084 9.21602 9.192 8.98802 9.192C8.85002 9.192 8.73002 9.144 8.63402 9.048C8.53802 8.952 8.48402 8.826 8.48402 8.682Z" fill="#A29797"/>
</svg>
