<svg width="25" height="25" viewBox="0 0 25 25" fill="none" xmlns="http://www.w3.org/2000/svg">
<path d="M3.36871 4.15344L5.44871 4.51344L6.41171 15.9864C6.48871 16.9234 7.27171 17.6424 8.21171 17.6395H19.1207C20.0177 17.6414 20.7787 16.9814 20.9057 16.0934L21.8547 9.53544C21.9607 8.80244 21.4517 8.12244 20.7197 8.01644C20.6557 8.00744 5.78271 8.00244 5.78271 8.00244" stroke="#989898" stroke-width="1.5" stroke-linecap="round" stroke-linejoin="round"/>
<path d="M14.7437 11.6983H17.5167" stroke="#989898" stroke-width="1.5" stroke-linecap="round" stroke-linejoin="round"/>
<path fill-rule="evenodd" clip-rule="evenodd" d="M7.773 21.106C8.074 21.106 8.317 21.35 8.317 21.65C8.317 21.951 8.074 22.195 7.773 22.195C7.472 22.195 7.229 21.951 7.229 21.65C7.229 21.35 7.472 21.106 7.773 21.106Z" fill="#989898" stroke="#989898" stroke-width="1.5" stroke-linecap="round" stroke-linejoin="round"/>
<path fill-rule="evenodd" clip-rule="evenodd" d="M19.0533 21.106C19.3543 21.106 19.5983 21.35 19.5983 21.65C19.5983 21.951 19.3543 22.195 19.0533 22.195C18.7523 22.195 18.5093 21.951 18.5093 21.65C18.5093 21.35 18.7523 21.106 19.0533 21.106Z" fill="#989898" stroke="#989898" stroke-width="1.5" stroke-linecap="round" stroke-linejoin="round"/>
</svg>
