<svg width="24" height="24" viewBox="0 0 24 24" fill="none" xmlns="http://www.w3.org/2000/svg">
<path d="M11.712 3.44997C11.7991 3.33392 11.8506 3.19509 11.8604 3.05033C11.8701 2.90557 11.8377 2.76109 11.767 2.63439C11.6963 2.5077 11.5904 2.40423 11.462 2.33653C11.3337 2.26883 11.1885 2.23981 11.044 2.25297C5.63 2.74697 2.608 7.00497 2.28 11.358C1.952 15.719 4.317 20.333 9.731 21.524C15.417 22.774 21.203 18.687 21.747 12.878C21.7605 12.7342 21.7323 12.5895 21.6656 12.4614C21.5989 12.3332 21.4966 12.2271 21.371 12.1557C21.2454 12.0843 21.1019 12.0507 20.9577 12.0589C20.8134 12.0671 20.6747 12.1168 20.558 12.202C17.721 14.271 14.478 13.518 12.422 11.478C10.368 9.43897 9.622 6.23897 11.712 3.44997Z" fill="black"/>
</svg>
