<svg width="25" height="25" viewBox="0 0 25 25" fill="none" xmlns="http://www.w3.org/2000/svg">
<path fill-rule="evenodd" clip-rule="evenodd" d="M21.6093 8.52712L20.9869 7.44703C20.4603 6.53311 19.2934 6.21782 18.3782 6.74222C17.9426 6.99885 17.4228 7.07166 16.9334 6.94459C16.444 6.81752 16.0253 6.50102 15.7695 6.06488C15.605 5.78765 15.5166 5.4719 15.5132 5.14954C15.5281 4.63273 15.3331 4.13191 14.9727 3.76117C14.6123 3.39044 14.1172 3.18137 13.6002 3.18158H12.3462C11.8396 3.18158 11.354 3.38342 10.9967 3.74245C10.6394 4.10148 10.4398 4.5881 10.4423 5.09462C10.4273 6.14043 9.57515 6.98031 8.52924 6.98021C8.20689 6.97686 7.89113 6.88845 7.61391 6.72391C6.69874 6.19952 5.53179 6.5148 5.00521 7.42872L4.33702 8.52712C3.81108 9.4399 4.12207 10.6061 5.03267 11.1358C5.62458 11.4775 5.9892 12.1091 5.9892 12.7926C5.9892 13.476 5.62458 14.1076 5.03267 14.4493C4.12323 14.9754 3.8119 16.1388 4.33702 17.0489L4.9686 18.1381C5.21532 18.5833 5.62928 18.9118 6.11887 19.0509C6.60846 19.1901 7.13331 19.1284 7.57729 18.8795C8.01375 18.6248 8.53386 18.5551 9.02201 18.6857C9.51016 18.8163 9.92591 19.1365 10.1768 19.5752C10.3414 19.8524 10.4298 20.1681 10.4331 20.4905C10.4331 21.547 11.2896 22.4035 12.3462 22.4035H13.6002C14.6532 22.4035 15.5082 21.5526 15.5132 20.4997C15.5108 19.9915 15.7115 19.5035 16.0708 19.1442C16.4301 18.7849 16.9181 18.5842 17.4263 18.5866C17.7478 18.5952 18.0623 18.6833 18.3416 18.8429C19.2544 19.3688 20.4206 19.0579 20.9503 18.1473L21.6093 17.0489C21.8644 16.611 21.9344 16.0895 21.8039 15.5999C21.6733 15.1102 21.3529 14.6929 20.9137 14.4402C20.4744 14.1875 20.1541 13.7701 20.0235 13.2804C19.8929 12.7908 19.9629 12.2693 20.218 11.8315C20.3839 11.5418 20.6241 11.3017 20.9137 11.1358C21.8188 10.6064 22.1291 9.447 21.6093 8.53627V8.52712Z" stroke="#989898" stroke-width="1.5" stroke-linecap="round" stroke-linejoin="round"/>
<path d="M12.9778 15.4287C14.4337 15.4287 15.6139 14.2485 15.6139 12.7926C15.6139 11.3366 14.4337 10.1564 12.9778 10.1564C11.5219 10.1564 10.3416 11.3366 10.3416 12.7926C10.3416 14.2485 11.5219 15.4287 12.9778 15.4287Z" stroke="#989898" stroke-width="1.5" stroke-linecap="round" stroke-linejoin="round"/>
</svg>
