<svg width="33" height="33" viewBox="0 0 33 33" fill="none" xmlns="http://www.w3.org/2000/svg">
<path d="M10.4017 25.2516C11.5075 25.2516 12.4135 26.1768 12.4135 27.3198C12.4135 28.4492 11.5075 29.3744 10.4017 29.3744C9.28258 29.3744 8.37662 28.4492 8.37662 27.3198C8.37662 26.1768 9.28258 25.2516 10.4017 25.2516ZM25.39 25.2516C26.4958 25.2516 27.4018 26.1768 27.4018 27.3198C27.4018 28.4492 26.4958 29.3744 25.39 29.3744C24.2709 29.3744 23.3649 28.4492 23.3649 27.3198C23.3649 26.1768 24.2709 25.2516 25.39 25.2516ZM4.34003 2.71941L7.51756 3.2079C7.97054 3.2909 8.30361 3.67053 8.34358 4.13316L8.59672 7.18108C8.63668 7.61786 8.98308 7.94442 9.40942 7.94442H27.4021C28.2148 7.94442 28.7477 8.23016 29.2806 8.85608C29.8135 9.48199 29.9068 10.38 29.7869 11.1951L28.5212 20.1211C28.2814 21.8369 26.8425 23.101 25.1505 23.101H10.6151C8.84319 23.101 7.37767 21.7145 7.23111 19.9184L6.0054 5.08563L3.99364 4.73186C3.46072 4.63661 3.08768 4.10595 3.18094 3.56167C3.2742 3.00516 3.79379 2.63641 4.34003 2.71941ZM23.0188 12.9776H19.3284C18.7688 12.9776 18.3291 13.4266 18.3291 13.9981C18.3291 14.556 18.7688 15.0186 19.3284 15.0186H23.0188C23.5784 15.0186 24.018 14.556 24.018 13.9981C24.018 13.4266 23.5784 12.9776 23.0188 12.9776Z" fill="white"/>
</svg>
