<svg width="27" height="27" viewBox="0 0 27 27" fill="none" xmlns="http://www.w3.org/2000/svg">
<path fill-rule="evenodd" clip-rule="evenodd" d="M16.6533 18.7079H10.3391C9.88953 18.7079 9.52469 18.343 9.52469 17.8935C9.52469 17.4439 9.88953 17.0791 10.3391 17.0791H16.6533C17.1028 17.0791 17.4677 17.4439 17.4677 17.8935C17.4677 18.343 17.1028 18.7079 16.6533 18.7079ZM21.3669 7.06004C20.9728 6.71257 20.5243 6.3195 19.9901 5.82544C19.7479 5.62999 19.483 5.40631 19.2017 5.16959C17.6164 3.83292 15.4447 2.0022 13.4653 2.0022C11.5086 2.0022 9.47692 3.73086 7.8449 5.11965C7.54303 5.3759 7.26071 5.61696 6.97297 5.85042C6.46697 6.3195 6.01851 6.71366 5.62327 7.06221C3.03137 9.34357 2.54382 9.94186 2.54382 15.2636C2.54382 24.8049 5.30294 24.8049 13.4957 24.8049C21.6872 24.8049 24.4474 24.8049 24.4474 15.2636C24.4474 9.94078 23.9599 9.34248 21.3669 7.06004Z" fill="#8D62F9"/>
</svg>
