<svg width="13" height="12" viewBox="0 0 13 12" fill="none" xmlns="http://www.w3.org/2000/svg">
<path fill-rule="evenodd" clip-rule="evenodd" d="M7.05213 2.0885L7.96583 3.91388C8.05538 4.09308 8.22823 4.21734 8.42867 4.24609L10.4727 4.54031C10.9777 4.61322 11.1786 5.22527 10.8132 5.57597L9.33509 6.99622C9.18984 7.13588 9.12372 7.33665 9.15808 7.53382L9.5069 9.53891C9.5928 10.0349 9.06488 10.4133 8.6135 10.1787L6.78661 9.23134C6.60751 9.1384 6.39301 9.1384 6.21339 9.23134L4.3865 10.1787C3.93512 10.4133 3.4072 10.0349 3.49362 9.53891L3.84192 7.53382C3.87628 7.33665 3.81016 7.13588 3.66491 6.99622L2.18684 5.57597C1.82136 5.22527 2.02232 4.61322 2.52733 4.54031L4.57133 4.24609C4.77177 4.21734 4.94514 4.09308 5.03469 3.91388L5.94787 2.0885C6.17383 1.63717 6.82617 1.63717 7.05213 2.0885Z" fill="#EBAD42"/>
</svg>
